<svg width="25" height="25" viewBox="0 0 25 25" fill="none" xmlns="http://www.w3.org/2000/svg">
<path d="M7.4625 14.4648L3.75 17.4648V5.46484C3.75 5.26593 3.82902 5.07517 3.96967 4.93451C4.11032 4.79386 4.30109 4.71484 4.5 4.71484H16.5C16.6989 4.71484 16.8897 4.79386 17.0303 4.93451C17.171 5.07517 17.25 5.26593 17.25 5.46484V13.7148C17.25 13.9138 17.171 14.1045 17.0303 14.2452C16.8897 14.3858 16.6989 14.4648 16.5 14.4648H7.4625Z" stroke="#98A2B3" stroke-width="1.5" stroke-linecap="round" stroke-linejoin="round"/>
<path d="M8.25 14.4648V18.2148C8.25 18.4138 8.32902 18.6045 8.46967 18.7452C8.61032 18.8858 8.80109 18.9648 9 18.9648H18.0375L21.75 21.9648V9.96484C21.75 9.76593 21.671 9.57517 21.5303 9.43451C21.3897 9.29386 21.1989 9.21484 21 9.21484H17.25" stroke="#98A2B3" stroke-width="1.5" stroke-linecap="round" stroke-linejoin="round"/>
</svg>
