<svg width="24" height="25" viewBox="0 0 24 25" fill="none" xmlns="http://www.w3.org/2000/svg">
<path d="M8 11.474V6.474C8 5.41313 8.42143 4.39572 9.17157 3.64557C9.92172 2.89543 10.9391 2.474 12 2.474C13.0609 2.474 14.0783 2.89543 14.8284 3.64557C15.5786 4.39572 16 5.41313 16 6.474M5 13.474C5 12.9436 5.21071 12.4349 5.58579 12.0598C5.96086 11.6847 6.46957 11.474 7 11.474H17C17.5304 11.474 18.0391 11.6847 18.4142 12.0598C18.7893 12.4349 19 12.9436 19 13.474V19.474C19 20.0044 18.7893 20.5131 18.4142 20.8882C18.0391 21.2633 17.5304 21.474 17 21.474H7C6.46957 21.474 5.96086 21.2633 5.58579 20.8882C5.21071 20.5131 5 20.0044 5 19.474V13.474ZM11 16.474C11 16.7392 11.1054 16.9936 11.2929 17.1811C11.4804 17.3686 11.7348 17.474 12 17.474C12.2652 17.474 12.5196 17.3686 12.7071 17.1811C12.8946 16.9936 13 16.7392 13 16.474C13 16.2088 12.8946 15.9544 12.7071 15.7669C12.5196 15.5794 12.2652 15.474 12 15.474C11.7348 15.474 11.4804 15.5794 11.2929 15.7669C11.1054 15.9544 11 16.2088 11 16.474Z" stroke="#AECDFB" stroke-width="2" stroke-linecap="round" stroke-linejoin="round"/>
</svg>
